<svg xmlns="http://www.w3.org/2000/svg" xml:space="preserve" width="64" height="64" viewBox="50 0 200 341">
<path d="M78.746 330.914c-16.178-3.813-30.793-20.84-33.732-39.3-1.697-10.666.174-19.443 6.199-29.071 1.805-2.886 30.382-32.423 66.797-69.043 37.189-37.399 64.965-66.122 66.826-69.105 3.777-6.052 7.699-15.397 8.7-20.73.394-2.104 1.238-4.025 1.875-4.27 1.376-.527 37.439 35.472 44.182 44.105 12.455 15.78 14.108 22.667 14.182 30.522-.052 11.973-5.17 17.218-11.11 26.157-4.04 6.078-121.027 121.474-127.676 125.94-2.377 1.596-6.579 3.573-9.337 4.392-5.492 1.63-20.729 1.86-26.906.403" transform="translate(.307 -1.406)" style="fill: rgb(82, 201, 163);"></path>
<path d="M87.78 119.25C56.8 88.184 52.804 83.81 50.09 78c-8.368-17.921-4.929-38.219 8.674-51.194 3.214-3.065 8.085-6.71 10.823-8.097 13.802-6.994 32.867-5.685 45.688 3.136 2.442 1.68 14.206 12.856 26.142 24.837 18.788 18.856 22.168 22.724 25.164 28.8 6.283 12.742 5.594 24.685-2.303 39.894-2.952 5.683-6.842 10.31-19.239 22.878-14.243 14.44-15.833 15.754-19.071 15.75-3.31-.004-5.725-2.202-38.188-34.754" transform="translate(.307 -1.406)" style="fill: rgb(20, 168, 201);"></path>
<path d="M16.174 254.686 14 252.37V92.35c0-3.223 5.189-4.308 8.069-4.349 3.197 0 6.315 2.876 44.186 40.755 35.55 35.557 40.747 38.512 40.745 43.754s-5.193 8.192-40.755 43.746C27.791 254.7 25.29 257 21.92 257c-2.44 0-4.26-.733-5.746-2.314" transform="translate(.307 -1.406)" style="fill: rgb(83, 105, 169);"></path>
</svg>